<svg id="Layer_1" data-name="Layer 1" xmlns="http://www.w3.org/2000/svg" viewBox="0 0 1080 1080"><defs><style>.cls-1{fill:#114575;}.cls-2{fill:#01a2e9;}</style></defs><title>iconiclogo</title><path class="cls-1" d="M880.59,788.23H560.27c-139.29,0-267.63-80-324.69-207.08a354.82,354.82,0,0,1-27-91.48V453.19H300.7c9,126,114,225.49,242.34,225.49s233.34-99.45,242.34-225.49l94.52-.37v.25Z"/><path class="cls-2" d="M880.54,437.23H784.19c0-133.38-108.11-241.49-241.49-241.49S301.25,303.85,301.25,437.23H204.9C206,251.53,356.79,101.3,542.7,101.3S879.48,251.53,880.54,437.23Z"/><circle class="cls-1" cx="544.58" cy="436.38" r="199.33"/><path class="cls-1" d="M75,869.6q-3.72.12-5.46,1.57a6.68,6.68,0,0,0-2.21,4.18,44.22,44.22,0,0,0-.46,7.14V930.2c0,2.09,0,4-.06,5.63a31.77,31.77,0,0,1-.29,4c1.32-.16,2.77-.25,4.36-.29s3-.1,4.12-.18v6.39H46.48v-5.11C49,940.5,50.87,940,52,939a6.61,6.61,0,0,0,2.15-4.18,44.26,44.26,0,0,0,.46-7.08V879.47c0-1.7,0-3.35.12-4.93s.16-3,.23-4.12l-4.29.23c-1.55.08-2.94.15-4.18.23V864.5H75Z"/><path class="cls-1" d="M149,890.38q-1.28-10.44-7.19-16.07t-15.44-5.75a23.71,23.71,0,0,0-11.15,2.67,26.59,26.59,0,0,0-8.82,7.49,35.78,35.78,0,0,0-5.75,11.37,48.48,48.48,0,0,0-2,14.34,44.89,44.89,0,0,0,3.72,18.75,30.15,30.15,0,0,0,10.27,12.71,25.61,25.61,0,0,0,14.92,4.53,33.18,33.18,0,0,0,14.68-3.54,32.15,32.15,0,0,0,12-10l3.83,3.25a42.85,42.85,0,0,1-11.15,11,36.59,36.59,0,0,1-11.78,5.17,48.24,48.24,0,0,1-10.62,1.33,40.2,40.2,0,0,1-16-3.13,37.09,37.09,0,0,1-12.6-8.76,39.41,39.41,0,0,1-8.12-13.12,45.15,45.15,0,0,1-2.85-16.2,50.49,50.49,0,0,1,2.56-15.9A45.33,45.33,0,0,1,95,876.4a35.86,35.86,0,0,1,12.6-10,40,40,0,0,1,17.7-3.71,40.57,40.57,0,0,1,22.41,6.62l-.58-5.81h7.19v26.93Z"/><path class="cls-1" d="M206.68,947.61q-11,0-18.87-3.71A34.75,34.75,0,0,1,175.1,934a42.21,42.21,0,0,1-7.2-13.75,51,51,0,0,1-2.32-15.09,46.41,46.41,0,0,1,2.5-14.8,43.89,43.89,0,0,1,7.54-13.76,37.88,37.88,0,0,1,12.66-10.1,39.13,39.13,0,0,1,17.82-3.83q10.68,0,18.4,3.83a36.7,36.7,0,0,1,12.71,10.16,46.55,46.55,0,0,1,10,28.5,46.06,46.06,0,0,1-2.5,14.68,44.53,44.53,0,0,1-7.54,13.82,37.82,37.82,0,0,1-12.6,10.15A39,39,0,0,1,206.68,947.61Zm.58-6a21.94,21.94,0,0,0,11.66-3,24.87,24.87,0,0,0,8.13-8.07,37.72,37.72,0,0,0,4.7-11.14,50.18,50.18,0,0,0,1.51-12.13,58.43,58.43,0,0,0-1.74-14.34,41.61,41.61,0,0,0-5.28-12.42,27.21,27.21,0,0,0-8.77-8.71,22.67,22.67,0,0,0-12.07-3.19,21.6,21.6,0,0,0-11.73,3.13,25.32,25.32,0,0,0-8.12,8.19,39.54,39.54,0,0,0-4.7,11.14,48.77,48.77,0,0,0-1.57,12.25A54.19,54.19,0,0,0,180.91,916a46.37,46.37,0,0,0,5,12.54,28.33,28.33,0,0,0,8.65,9.4A22,22,0,0,0,207.26,941.58Z"/><path class="cls-1" d="M319.86,947.38,276.68,890c-.86-1-1.67-2-2.44-3.14l-2.44-3.37h-.11l.34,45.16c0,1.94,0,3.87,0,5.81s-.14,3.71-.29,5.34c1.31-.16,2.76-.25,4.35-.29s3-.1,4.12-.18v6.39h-23v-5.11a8.09,8.09,0,0,0,4.94-1.28,6.52,6.52,0,0,0,2.32-3.36,17,17,0,0,0,.64-4.88V874.48c0-1.55,0-2.9.11-4.06-1.23.08-2.61.15-4.12.23s-2.84.15-4,.23V864.5h15.32l40.86,53.74q2,2.57,3.54,4.76c1.05,1.47,2.07,2.87,3.08,4.18H320l.11-47.71c0-1.7,0-3.35.12-4.93s.15-3,.23-4.12l-4.41.23c-1.55.08-2.9.15-4.06.23V864.5h23v5.1c-2.48.08-4.27.6-5.4,1.57a6.58,6.58,0,0,0-2.09,4.18,50.69,50.69,0,0,0-.4,7.14l-.12,64.89Z"/><path class="cls-1" d="M374.42,869.6q-3.72.12-5.46,1.57a6.67,6.67,0,0,0-2.2,4.18,44.06,44.06,0,0,0-.47,7.14V930.2c0,2.09,0,4-.05,5.63a33.78,33.78,0,0,1-.29,4c1.31-.16,2.76-.25,4.35-.29s3-.1,4.12-.18v6.39H345.86v-5.11c2.56-.15,4.39-.7,5.52-1.63a6.6,6.6,0,0,0,2.14-4.18,44.11,44.11,0,0,0,.47-7.08V879.47c0-1.7,0-3.35.11-4.93s.16-3,.24-4.12l-4.3.23c-1.55.08-2.94.15-4.18.23V864.5h28.56Z"/><path class="cls-1" d="M448.37,890.38q-1.29-10.44-7.2-16.07t-15.44-5.75a23.67,23.67,0,0,0-11.14,2.67,26.72,26.72,0,0,0-8.83,7.49A35.77,35.77,0,0,0,400,890.09a48.16,48.16,0,0,0-2,14.34,44.89,44.89,0,0,0,3.71,18.75A30.23,30.23,0,0,0,412,935.89a25.65,25.65,0,0,0,14.92,4.53,33.22,33.22,0,0,0,14.69-3.54,32.12,32.12,0,0,0,12-10l3.83,3.25a42.82,42.82,0,0,1-11.14,11,36.73,36.73,0,0,1-11.79,5.17,48.17,48.17,0,0,1-10.62,1.33,40.27,40.27,0,0,1-16-3.13,37.15,37.15,0,0,1-12.59-8.76,39.43,39.43,0,0,1-8.13-13.12,45.15,45.15,0,0,1-2.84-16.2,50.77,50.77,0,0,1,2.55-15.9,45.36,45.36,0,0,1,7.55-14.1,35.74,35.74,0,0,1,12.59-10,40,40,0,0,1,17.71-3.71,41.63,41.63,0,0,1,11.55,1.62,41,41,0,0,1,10.85,5l-.58-5.81h7.2v26.93Z"/><path class="cls-1" d="M525.33,869.6q-3.72.12-5.46,1.57a6.67,6.67,0,0,0-2.2,4.18,44.06,44.06,0,0,0-.47,7.14V930.2c0,2.09,0,4-.05,5.63a31.48,31.48,0,0,1-.3,4c1.32-.16,2.77-.25,4.36-.29s3-.1,4.12-.18v6.39H496.77v-5.11c2.56-.15,4.39-.7,5.52-1.63a6.6,6.6,0,0,0,2.14-4.18,44.11,44.11,0,0,0,.47-7.08V879.47c0-1.7,0-3.35.11-4.93s.16-3,.24-4.12l-4.3.23c-1.55.08-2.94.15-4.18.23V864.5h28.56Z"/><path class="cls-1" d="M600.55,947.38,557.37,890c-.85-1-1.67-2-2.44-3.14s-1.59-2.2-2.44-3.37h-.11l.34,45.16c0,1.94,0,3.87-.05,5.81s-.14,3.71-.29,5.34c1.31-.16,2.76-.25,4.35-.29s3-.1,4.12-.18v6.39h-23v-5.11a8.08,8.08,0,0,0,4.93-1.28,6.46,6.46,0,0,0,2.32-3.36,17,17,0,0,0,.64-4.88V874.48c0-1.55,0-2.9.12-4.06-1.24.08-2.62.15-4.13.23s-2.84.15-4,.23V864.5h15.32l40.87,53.74q2,2.57,3.54,4.76c1,1.47,2.06,2.87,3.07,4.18h.12l.12-47.71c0-1.7,0-3.35.11-4.93s.15-3,.23-4.12l-4.41.23c-1.55.08-2.9.15-4.06.23V864.5h23v5.1q-3.71.12-5.39,1.57a6.53,6.53,0,0,0-2.09,4.18,49,49,0,0,0-.41,7.14l-.12,64.89Z"/><path class="cls-1" d="M672.64,889.57a29.51,29.51,0,0,0-3-10.68,19.66,19.66,0,0,0-6.73-7.6,18.27,18.27,0,0,0-10.68-2.73q-6.5,0-10.33,3.6a12.16,12.16,0,0,0-1.28,16.31,24.14,24.14,0,0,0,6.91,5.51q4.35,2.44,9.81,4.88,4.41,1.86,8.94,4.18a50,50,0,0,1,8.24,5.28,22.64,22.64,0,0,1,5.92,7.08,20.26,20.26,0,0,1,2.2,9.69,20.63,20.63,0,0,1-3.36,11.61,22.56,22.56,0,0,1-9.58,8,35.22,35.22,0,0,1-15,2.9,40.08,40.08,0,0,1-10.51-1.5,38.52,38.52,0,0,1-10-4.3l.58,4.88H627.6l-.46-25.54h5.57q.93,10.1,7.25,15.26a23.17,23.17,0,0,0,15.15,5.17,19.15,19.15,0,0,0,8-1.63,13.47,13.47,0,0,0,5.69-4.64,12.14,12.14,0,0,0,2.09-7.08,11.77,11.77,0,0,0-2.84-8,25.06,25.06,0,0,0-7.2-5.57q-4.35-2.32-9.11-4.42t-9.23-4.41a43.45,43.45,0,0,1-8.07-5.34,22.44,22.44,0,0,1-5.69-7.14,21.17,21.17,0,0,1-2.09-9.69,22.47,22.47,0,0,1,1.16-6.85,19.86,19.86,0,0,1,3.95-6.85,20.21,20.21,0,0,1,7.6-5.28,31.48,31.48,0,0,1,12.13-2,44.61,44.61,0,0,1,9.93,1.28,27.93,27.93,0,0,1,10,4.52l-.46-4.87h7v26Z"/><path class="cls-1" d="M722.09,869.6q-3.71.12-5.45,1.57a6.68,6.68,0,0,0-2.21,4.18,44.22,44.22,0,0,0-.46,7.14V930.2c0,2.09,0,4-.06,5.63a33.78,33.78,0,0,1-.29,4c1.31-.16,2.77-.25,4.35-.29s3-.1,4.12-.18v6.39H693.54v-5.11c2.55-.15,4.39-.7,5.51-1.63a6.61,6.61,0,0,0,2.15-4.18,44.26,44.26,0,0,0,.46-7.08V879.47c0-1.7,0-3.35.12-4.93s.15-3,.23-4.12l-4.29.23c-1.55.08-3,.15-4.18.23V864.5h28.55Z"/><path class="cls-1" d="M771.55,947.61a41.16,41.16,0,0,1-20.78-5.1A35,35,0,0,1,737,928.17q-4.87-9.23-4.87-21.53a51.9,51.9,0,0,1,2.49-15.91,44.77,44.77,0,0,1,7.55-14.16,36.6,36.6,0,0,1,12.65-10.16,39.42,39.42,0,0,1,17.7-3.77,48,48,0,0,1,8,.7,50.16,50.16,0,0,1,8.19,2.08,38.15,38.15,0,0,1,7.25,3.37l-.46-5.34h7.2v26.7h-5.34a24,24,0,0,0-3.89-11.78,21.43,21.43,0,0,0-8.48-7.31,25.82,25.82,0,0,0-11.43-2.5,23.15,23.15,0,0,0-11.2,2.73,27.58,27.58,0,0,0-8.77,7.54,35.92,35.92,0,0,0-5.74,11.32,46.32,46.32,0,0,0-2,13.93,47.8,47.8,0,0,0,3.55,19,30.55,30.55,0,0,0,10,13.06,25,25,0,0,0,15.2,4.76,39.14,39.14,0,0,0,6.1-.52,41.24,41.24,0,0,0,6.62-1.63,25.71,25.71,0,0,0,6-2.84v-13c0-1.94,0-3.85.06-5.75s.06-3.66.06-5.28c-1.24.08-2.63.16-4.18.23l-4.06.23v-6.38h27.74v5.11a7.23,7.23,0,0,0-4.47,1.27,7.34,7.34,0,0,0-2.43,3.2,15.09,15.09,0,0,0-1,4.06,36.07,36.07,0,0,0-.23,4v18.11h-3a25.82,25.82,0,0,0-5.69.76,60.58,60.58,0,0,0-7.31,2.26,51.05,51.05,0,0,1-8.25,2.09A51.91,51.91,0,0,1,771.55,947.61Z"/><path class="cls-1" d="M821.34,945.76v-5.11c2.56-.15,4.4-.7,5.52-1.63a6.61,6.61,0,0,0,2.15-4.18,44.26,44.26,0,0,0,.46-7.08V879.47c0-1.7,0-3.35.12-4.93s.15-3,.23-4.12l-4.3.23c-1.55.08-2.94.15-4.18.23V864.5H849.9v5.1c-2.48.08-4.29.6-5.45,1.57a6.68,6.68,0,0,0-2.21,4.18,44.22,44.22,0,0,0-.46,7.14v18.92H880.2V879.47c0-1.7,0-3.35.12-4.93s.15-3,.23-4.12l-4.3.23c-1.54.08-2.94.15-4.17.23V864.5h28.55v5.1c-2.48.08-4.29.6-5.45,1.57a6.64,6.64,0,0,0-2.21,4.18,44.22,44.22,0,0,0-.46,7.14V930.2c0,2.09,0,4-.06,5.63a33.78,33.78,0,0,1-.29,4c1.31-.16,2.74-.25,4.29-.29s2.94-.1,4.18-.18v6.39H872.08v-5.11c2.55-.15,4.39-.7,5.51-1.63a6.61,6.61,0,0,0,2.15-4.18,45.47,45.47,0,0,0,.46-7.08V907.45l-38.42.35v22.4c0,2.09,0,4-.06,5.63a33.78,33.78,0,0,1-.29,4c1.31-.16,2.76-.25,4.35-.29s3-.1,4.12-.18v6.39Z"/><path class="cls-1" d="M973.53,889.57a39.23,39.23,0,0,0-1.51-11,12.14,12.14,0,0,0-4.58-6.61q-3.2-2.2-8.77-2.09h-8.35l-.12,60.36c0,2.09,0,4-.06,5.63a31.77,31.77,0,0,1-.29,4c1.47-.16,3.08-.25,4.82-.29s3.31-.1,4.7-.18v6.39H929.88v-5.11c2.56-.15,4.38-.7,5.46-1.63a6.82,6.82,0,0,0,2.09-4.23,44.71,44.71,0,0,0,.46-7V870l-9.75.12q-7.08,0-10.33,4.76t-3.25,14.74H909.1l.7-25.07h68.49l.7,25.07Z"/><path class="cls-1" d="M1033.67,889.57a29.71,29.71,0,0,0-3-10.68,19.69,19.69,0,0,0-6.74-7.6,18.25,18.25,0,0,0-10.68-2.73q-6.5,0-10.33,3.6a12.16,12.16,0,0,0-1.28,16.31,24.28,24.28,0,0,0,6.91,5.51q4.35,2.44,9.81,4.88,4.41,1.86,8.94,4.18a49.6,49.6,0,0,1,8.24,5.28,22.5,22.5,0,0,1,5.92,7.08,20.26,20.26,0,0,1,2.21,9.69,20.56,20.56,0,0,1-3.37,11.61,22.5,22.5,0,0,1-9.58,8,35.22,35.22,0,0,1-15,2.9,40,40,0,0,1-10.5-1.5,38.44,38.44,0,0,1-10-4.3l.58,4.88h-7.08l-.46-25.54h5.57q.93,10.1,7.26,15.26a23.14,23.14,0,0,0,15.15,5.17,19.15,19.15,0,0,0,8-1.63,13.5,13.5,0,0,0,5.68-4.64,12.07,12.07,0,0,0,2.09-7.08,11.77,11.77,0,0,0-2.84-8,25.06,25.06,0,0,0-7.2-5.57q-4.35-2.32-9.11-4.42t-9.23-4.41a43.45,43.45,0,0,1-8.07-5.34,22.58,22.58,0,0,1-5.69-7.14,21.17,21.17,0,0,1-2.09-9.69,22.2,22.2,0,0,1,1.17-6.85,19.57,19.57,0,0,1,11.55-12.13,31.44,31.44,0,0,1,12.13-2,44.46,44.46,0,0,1,9.92,1.28,27.77,27.77,0,0,1,10,4.52l-.46-4.87h7v26Z"/></svg>